<svg xmlns="http://www.w3.org/2000/svg" width="365" height="127" viewBox="0 0 365 127" version="1.1"><path d="M 359 63.500 L 359 127 362 127 L 365 127 365 63.500 L 365 0 362 0 L 359 0 359 63.500 M 142.500 13.406 C 127.956 17, 119.304 26.267, 118.264 39.364 C 116.890 56.672, 124.780 64.106, 154.474 73.484 C 174.991 79.964, 180.509 85.682, 177.130 96.961 C 170.620 118.689, 132.767 114.599, 128.472 91.703 L 127.777 88 120.760 88 L 113.742 88 114.437 93.250 C 119.567 132.018, 187.691 133.461, 191.672 94.886 C 193.442 77.736, 185.001 69.135, 158.852 61.439 C 138.707 55.511, 132 50.610, 132 41.820 C 132 19.738, 168.268 16.914, 174.545 38.508 L 176.142 44 183.159 44 L 190.176 44 189.499 39.750 C 186.258 19.410, 165.435 7.738, 142.500 13.406 M 9 67.500 L 9 120 16 120 L 23 120 23 96.500 L 23 73 48.500 73 L 74 73 74 96.500 L 74 120 81 120 L 88 120 88 90.500 L 88 61 95 61 L 102 61 102 38 L 102 15 95 15 L 88 15 88 38 L 88 61 55.500 61 L 23 61 23 38 L 23 15 16 15 L 9 15 9 67.500 M 205.231 37.750 L 205.500 60.500 212.250 60.796 L 219 61.091 219 38.046 L 219 15 211.981 15 L 204.962 15 205.231 37.750 M 236 67.576 L 236 120.152 261.250 119.826 L 286.500 119.500 292.762 116.608 C 314.654 106.498, 315.483 74.318, 294.017 67.887 C 289.240 66.456, 289.101 65.962, 292.850 63.748 C 312.274 52.273, 307.829 23.075, 285.655 16.490 C 281.864 15.364, 275.180 15, 258.318 15 L 236 15 236 67.576 M 340 38 L 340 61 333 61 L 326 61 326 90.500 L 326 120 333 120 L 340 120 340 90.546 L 340 61.091 346.750 60.796 L 353.500 60.500 353.769 37.750 L 354.038 15 347.019 15 L 340 15 340 38 M 250 44.111 L 250 61.222 264.250 60.812 C 285.137 60.210, 291 56.238, 291 42.688 C 291 30.348, 285.403 27.004, 264.750 27.002 L 250 27 250 44.111 M 250 90.500 L 250 108 265.750 107.978 C 290.173 107.944, 298.724 101.522, 295.002 86.009 C 292.467 75.441, 287.014 73, 265.935 73 L 250 73 250 90.500" stroke="none" fill="#f7f7f7" fill-rule="evenodd"/></svg>