<svg width="1024" height="1168" xmlns="http://www.w3.org/2000/svg" xmlns:xlink="http://www.w3.org/1999/xlink" xml:space="preserve" overflow="hidden"><g transform="translate(1454 -21)"><path d="M-1255.21 212.75-1435.67 372.5-1320.08 373-1204.5 373.5-1204.27 380C-1203.87 391.494-1201.9 408.166-1199.41 421.094-1186.48 488.301-1148.48 541.075-1092.4 569.719-1055.62 588.5-1011.97 597.963-960.253 598.366-950.767 598.44-943.005 598.575-943.003 598.667-943.001 598.759-944.539 603.484-946.42 609.167-960.884 652.865-952.32 698.746-923.174 733.706-920.328 737.12-918 740.09-918 740.306-918 740.523-923.513 741.011-930.25 741.391-963.723 743.279-1006.3 749.186-1043.5 757.104-1090.68 767.145-1130.26 780.45-1164.18 797.674-1218.94 825.479-1252.18 859.926-1265.8 903-1270.46 917.747-1272.25 930.314-1272.21 948-1272.12 984.561-1262.72 1015.57-1243.33 1043.3-1236.4 1053.22-1215.39 1074.5-1204.8 1082.34-1157.9 1117.05-1091.12 1138.13-1002.5 1146.19-980.546 1148.19-931.122 1147.91-917 1145.71-779.005 1124.22-686.579 1064.23-657.436 977.226-640.659 927.143-644.173 870.545-666.997 823.213-677.356 801.731-689.685 784.464-708.419 765.2-728.646 744.401-748.463 729.18-780.5 709.839-794.416 701.438-799.662 697.578-809.415 688.559-823.891 675.174-828.998 668.948-834.073 658.5-839.793 646.722-841.352 639.612-841.42 625-841.489 610.111-839.999 603.564-833.567 590.5-824.02 571.111-811.847 558.384-778.42 532.849-727.843 494.212-708.792 468.835-699.602 427.859-695.776 410.803-694.346 389.509-695.793 371.143-697.901 344.367-703.585 322.823-715.997 294.554-723.459 277.557-725.517 269.635-723.967 263.876-721.849 256.01-720.534 254.929-615.045 174.259-552.236 126.229-557.488 129.25-554.47 139.414-552.575 145.794-552.598 155.036-554.527 162.441-555.366 165.664-559.376 175.321-563.437 183.901-571.292 200.497-572.502 203.703-574.102 212.149-574.66 215.092-575.504 245.4-575.979 279.5-576.857 342.54-577.475 360.368-581.093 427-584.78 494.925-584.702 559.02-580.91 577.103-579.315 584.711-572.371 597.672-566.996 603.075-561.289 608.812-558.091 609.651-538.453 610.562-525.923 611.143-522.453 610.983-517.708 609.603-504.383 605.73-498.121 594.741-495.951 571.426-493.689 547.118-498.386 394.789-503.01 342.5-504.41 326.665-504.2 301.124-502.507 281.5-500.534 258.627-500.572 233.877-502.598 221.926-504.758 209.182-509.956 193.399-517.664 176.182-524.552 160.795-525.619 156.01-526.346 137.269-526.754 126.742-525.666 118.206-523.334 113.64-521.133 109.33-505.021 92.986-483.5 73.232-473.6 64.145-464.613 55.875-463.528 54.855-461.607 53.048-469.511 53-768.152 53L-1074.75 53-1255.21 212.75M-999.5 191.922C-1014.15 194.292-1029.09 200.099-1042.16 208.508-1051.21 214.329-1066.86 230.032-1073.33 239.773-1100.21 280.267-1107.14 337.489-1092.36 397-1086.92 418.897-1076.59 444.439-1065.05 464.518-1034.23 518.145-989.508 555.132-941 567.104-932.788 569.131-928.991 569.452-913 569.471-896.733 569.49-893.474 569.213-886 567.178-844.202 555.794-813.854 522.089-801.648 473.491-797.368 456.453-796.499 447.969-796.523 423.5-796.54 406.51-797.005 397.626-798.302 389.5-813.465 294.465-878.262 213.315-954.028 194.472-962.334 192.407-967.603 191.79-979.5 191.491-987.75 191.283-996.75 191.477-999.5 191.922M-977 774.62C-986.966 775.491-1009.16 779.317-1020.04 782.037-1092.78 800.23-1145.94 845.562-1160.57 901.866-1165.26 919.912-1165.6 942.912-1161.45 960.873-1151.42 1004.21-1117.73 1044.41-1068.87 1071.31-1050.19 1081.6-1022.57 1091.6-998.349 1096.86-975.07 1101.91-961.065 1103.36-935.5 1103.37-899.073 1103.39-871.627 1098.66-839.5 1086.83-786.235 1067.22-745.774 1030.3-730.303 987.202-725.139 972.815-723 960.329-723 944.575-723 936.839-723.648 927.703-724.54 922.86-736.382 858.549-796.585 803.834-878.435 782.993-903.875 776.515-917.788 774.79-947 774.489-961.025 774.344-974.525 774.403-977 774.62" fill="#FFFFFF" fill-rule="evenodd"/></g></svg>