<svg xmlns="http://www.w3.org/2000/svg" width="1024" height="1168" viewBox="0 0 1024 1168" version="1.1"><path d="M 198.791 191.750 L 18.331 351.500 133.915 352 L 249.500 352.500 249.727 359 C 250.127 370.494, 252.099 387.166, 254.588 400.094 C 267.522 467.301, 305.522 520.075, 361.604 548.719 C 398.376 567.500, 442.027 576.963, 493.747 577.366 C 503.233 577.440, 510.995 577.575, 510.997 577.667 C 510.999 577.759, 509.461 582.484, 507.580 588.167 C 493.116 631.865, 501.680 677.746, 530.826 712.706 C 533.672 716.120, 536 719.090, 536 719.306 C 536 719.523, 530.487 720.011, 523.750 720.391 C 490.277 722.279, 447.704 728.186, 410.500 736.104 C 363.318 746.145, 323.739 759.450, 289.817 776.674 C 235.056 804.479, 201.823 838.926, 188.203 882 C 183.540 896.747, 181.750 909.314, 181.792 927 C 181.880 963.561, 191.276 994.571, 210.668 1022.301 C 217.603 1032.218, 238.610 1053.501, 249.197 1061.336 C 296.104 1096.051, 362.882 1117.128, 451.500 1125.188 C 473.454 1127.185, 522.878 1126.908, 537 1124.709 C 674.995 1103.222, 767.421 1043.228, 796.564 956.226 C 813.341 906.143, 809.827 849.545, 787.003 802.213 C 776.644 780.731, 764.315 763.464, 745.581 744.200 C 725.354 723.401, 705.537 708.180, 673.500 688.839 C 659.584 680.438, 654.338 676.578, 644.585 667.559 C 630.109 654.174, 625.002 647.948, 619.927 637.500 C 614.207 625.722, 612.648 618.612, 612.580 604 C 612.511 589.111, 614.001 582.564, 620.433 569.500 C 629.980 550.111, 642.153 537.384, 675.580 511.849 C 726.157 473.212, 745.208 447.835, 754.398 406.859 C 758.224 389.803, 759.654 368.509, 758.207 350.143 C 756.099 323.367, 750.415 301.823, 738.003 273.554 C 730.541 256.557, 728.483 248.635, 730.033 242.876 C 732.151 235.010, 733.466 233.929, 838.955 153.259 C 901.764 105.229, 896.512 108.250, 899.530 118.414 C 901.425 124.794, 901.402 134.036, 899.473 141.441 C 898.634 144.664, 894.624 154.321, 890.563 162.901 C 882.708 179.497, 881.498 182.703, 879.898 191.149 C 879.340 194.092, 878.496 224.400, 878.021 258.500 C 877.143 321.540, 876.525 339.368, 872.907 406 C 869.220 473.925, 869.298 538.020, 873.090 556.103 C 874.685 563.711, 881.629 576.672, 887.004 582.075 C 892.711 587.812, 895.909 588.651, 915.547 589.562 C 928.077 590.143, 931.547 589.983, 936.292 588.603 C 949.617 584.730, 955.879 573.741, 958.049 550.426 C 960.311 526.118, 955.614 373.789, 950.990 321.500 C 949.590 305.665, 949.800 280.124, 951.493 260.500 C 953.466 237.627, 953.428 212.877, 951.402 200.926 C 949.242 188.182, 944.044 172.399, 936.336 155.182 C 929.448 139.795, 928.381 135.010, 927.654 116.269 C 927.246 105.742, 928.334 97.206, 930.666 92.640 C 932.867 88.330, 948.979 71.986, 970.500 52.232 C 980.400 43.145, 989.387 34.875, 990.472 33.855 C 992.393 32.048, 984.489 32, 685.848 32 L 379.252 32 198.791 191.750 M 454.500 170.922 C 439.849 173.292, 424.913 179.099, 411.840 187.508 C 402.791 193.329, 387.136 209.032, 380.670 218.773 C 353.790 259.267, 346.865 316.489, 361.643 376 C 367.080 397.897, 377.410 423.439, 388.949 443.518 C 419.767 497.145, 464.492 534.132, 513 546.104 C 521.212 548.131, 525.009 548.452, 541 548.471 C 557.267 548.490, 560.526 548.213, 568 546.178 C 609.798 534.794, 640.146 501.089, 652.352 452.491 C 656.632 435.453, 657.501 426.969, 657.477 402.500 C 657.460 385.510, 656.995 376.626, 655.698 368.500 C 640.535 273.465, 575.738 192.315, 499.972 173.472 C 491.666 171.407, 486.397 170.790, 474.500 170.491 C 466.250 170.283, 457.250 170.477, 454.500 170.922 M 477 753.620 C 467.034 754.491, 444.836 758.317, 433.961 761.037 C 361.223 779.230, 308.059 824.562, 293.430 880.866 C 288.741 898.912, 288.400 921.912, 292.554 939.873 C 302.578 983.210, 336.271 1023.405, 385.127 1050.311 C 403.815 1060.603, 431.427 1070.605, 455.651 1075.859 C 478.930 1080.908, 492.935 1082.359, 518.500 1082.370 C 554.927 1082.386, 582.373 1077.657, 614.500 1065.829 C 667.765 1046.218, 708.226 1009.303, 723.697 966.202 C 728.861 951.815, 731 939.329, 731 923.575 C 731 915.839, 730.352 906.703, 729.460 901.860 C 717.618 837.549, 657.415 782.834, 575.565 761.993 C 550.125 755.515, 536.212 753.790, 507 753.489 C 492.975 753.344, 479.475 753.403, 477 753.620" stroke="none" fill="#fbfbfb" fill-rule="evenodd"/></svg>