<svg xmlns="http://www.w3.org/2000/svg" width="1287" height="1303" viewBox="0 0 1287 1303" version="1.1"><path d="M 141.979 19.957 C 91.245 26.440, 46.775 58.427, 24.442 104.500 C 18.103 117.577, 14.923 126.810, 11.870 141 C 8.637 156.030, 8.595 185.798, 11.787 200.565 C 15.021 215.529, 18.378 225.148, 25.024 238.500 C 46.091 280.823, 84.217 310.108, 131.352 320.170 C 144.966 323.076, 173.742 323.320, 187.933 320.650 C 219.399 314.729, 245.038 301.107, 268.072 278.072 C 291.093 255.052, 304.887 229.068, 310.728 197.724 C 313.334 183.742, 313.048 154.831, 310.170 141.352 C 297.133 80.281, 251.795 34.821, 191.077 21.938 C 180.284 19.648, 153.008 18.548, 141.979 19.957 M 914.500 445.580 C 912.850 445.805, 906.550 446.480, 900.500 447.080 C 811.231 455.938, 721.700 503.213, 682.385 562.250 C 678.814 567.612, 675.466 572, 674.946 572 C 674.362 572, 674 549.601, 674 513.500 L 674 455 559.500 455 L 445 455 445 860.500 L 445 1266 566.467 1266 L 687.934 1266 688.280 1054.750 C 688.593 863.911, 688.789 842.292, 690.304 831 C 698.112 772.826, 713.726 734.956, 741.992 705.637 C 754.663 692.494, 765.804 684.273, 781.500 676.486 C 808.363 663.159, 832.148 658.025, 867.119 658.008 C 891.516 657.996, 908.086 661.366, 925.757 669.932 C 952.449 682.872, 971.957 703.588, 987.498 735.500 C 997.369 755.768, 1003.900 777.256, 1007.861 802.500 C 1008.983 809.650, 1010.220 817.075, 1010.610 819 C 1011 820.925, 1011.585 922.175, 1011.910 1044 L 1012.500 1265.500 1134.297 1265.754 L 1256.095 1266.008 1255.721 1016.254 C 1255.329 754.390, 1255.353 755.922, 1251.023 717 C 1240.981 626.738, 1216.812 564.854, 1174.526 521.134 C 1134.674 479.931, 1081.796 457.091, 1004.996 447.907 C 991.144 446.251, 980.209 445.748, 952.500 445.493 C 933.250 445.316, 916.150 445.355, 914.500 445.580 M 39.249 860.250 L 39.500 1265.500 161 1265.500 L 282.500 1265.500 282.751 860.250 L 283.002 455 161 455 L 38.998 455 39.249 860.250" stroke="none" fill="#fbfbfb" fill-rule="evenodd"/></svg>