<svg xmlns="http://www.w3.org/2000/svg" width="2773" height="1193" viewBox="0 0 2773 1193" version="1.1"><path d="" stroke="none" fill="#b7bbc2" fill-rule="evenodd"/><path d="M 1107.500 27.672 C 907.630 34.413, 740.014 134.082, 637.747 307 C 625.014 328.529, 619.837 336.043, 611.535 345.042 C 608.216 348.640, 602.385 355.281, 598.579 359.799 C 594.772 364.318, 588.472 370.660, 584.579 373.893 C 580.685 377.126, 574.350 382.582, 570.500 386.017 C 557.727 397.414, 529.598 417.521, 503.500 433.908 C 392.592 503.549, 215.065 556.513, 62.261 565.549 C 30.893 567.404, 28.575 568.554, 25.680 583.704 C 22.495 600.375, 31.485 605.431, 67 606.946 C 118.135 609.128, 162.368 615.271, 223 628.610 C 293.874 644.203, 373.640 672, 446 706.322 C 504.137 733.897, 575.607 784.575, 605.318 819.291 C 620.624 837.176, 624.614 842.939, 642.987 873.700 C 656.176 895.782, 659.380 900.573, 672.926 918.472 C 707.954 964.757, 753.106 1009.759, 792 1037.153 C 894.646 1109.447, 999.357 1143.710, 1119.158 1144.204 C 1191.896 1144.504, 1255.890 1132.578, 1328.500 1105.190 C 1343.331 1099.596, 1374.751 1084.862, 1384 1079.164 C 1389.203 1075.958, 1389.984 1076.173, 1412.094 1086.896 C 1627.762 1191.492, 1880.625 1151.360, 2050.863 985.518 C 2062.350 974.326, 2092.536 940.993, 2096.963 934.610 C 2097.768 933.449, 2100.334 930.145, 2102.667 927.268 C 2114.850 912.237, 2131.707 886.940, 2145.495 863 C 2179.336 804.238, 2237.379 756.379, 2334 707.568 C 2446.628 650.670, 2590.918 612.677, 2717.492 606.590 C 2751.988 604.931, 2756.030 602.641, 2755.984 584.782 C 2755.943 569.360, 2751.823 567.134, 2720.096 565.396 C 2601.124 558.877, 2469.709 527.294, 2372 481.739 C 2367.875 479.815, 2361.125 476.777, 2357 474.988 C 2259.008 432.469, 2182.053 371.433, 2144.571 306.500 C 2086.814 206.445, 2004.672 130.853, 1901.500 82.814 C 1756.076 15.100, 1596.302 9.154, 1452.335 66.097 C 1437.294 72.046, 1403.206 88.320, 1395.203 93.372 C 1389.946 96.691, 1390.018 96.696, 1383.616 92.446 C 1330.926 57.462, 1201.648 25.098, 1123 27.202 C 1118.875 27.312, 1111.900 27.524, 1107.500 27.672 M 1079 69.523 C 872.270 88.297, 683.546 240.053, 626.567 433.330 C 614.507 474.241, 603.781 537.680, 605.195 559.738 C 605.750 568.397, 658.933 563.473, 744 546.886 C 840.177 528.133, 970.862 478.373, 1042.993 433.041 C 1047.122 430.446, 1054.223 426.003, 1058.774 423.167 C 1109.865 391.330, 1147.737 353.649, 1176.537 306 C 1189.971 283.774, 1200.560 267.636, 1210.001 255 C 1214.727 248.675, 1220.445 240.984, 1222.709 237.909 C 1224.972 234.834, 1227.430 231.684, 1228.171 230.909 C 1228.912 230.134, 1233.068 225.450, 1237.407 220.500 C 1266.676 187.109, 1316.275 142.009, 1338 129.032 C 1349.805 121.980, 1350.064 120.724, 1340.500 116.892 C 1338.850 116.231, 1332.325 113.463, 1326 110.741 C 1247.077 76.779, 1159.684 62.196, 1079 69.523 M 1628 69.664 C 1566.925 72.931, 1513.543 85.745, 1452 111.913 C 1430.666 120.984, 1430.945 120.484, 1442.855 128.342 C 1499.478 165.701, 1560.039 230.700, 1599.531 296.500 C 1628.692 345.089, 1646.682 365.445, 1691 400.005 C 1724.962 426.489, 1776.767 456.864, 1820.500 475.935 C 1826 478.333, 1832.750 481.301, 1835.500 482.530 C 1890.001 506.890, 1968.229 532.210, 2028.500 544.999 C 2074.048 554.664, 2093.137 557.554, 2150.815 563.522 C 2179.775 566.518, 2177.424 567.376, 2176.575 554.112 C 2166.139 391.010, 2080.776 244.313, 1943.500 153.573 C 1850.412 92.041, 1743.121 63.506, 1628 69.664 M 1387.065 145.422 C 1386.416 146.204, 1379.949 150.957, 1372.693 155.984 C 1321.018 191.787, 1288.828 221.781, 1253.117 267.403 C 1223.236 305.576, 1195.478 352.475, 1182.388 386.902 C 1180.381 392.181, 1176.773 401.494, 1174.370 407.597 C 1168.396 422.767, 1167.623 421.510, 1187.787 429.405 C 1238.255 449.164, 1273.743 491.427, 1286.532 547 C 1291.011 566.462, 1291.590 604.113, 1287.633 618.500 C 1286.876 621.250, 1285.109 628.302, 1283.706 634.170 C 1281.181 644.728, 1274.787 660.950, 1267.811 674.500 C 1256.843 695.803, 1223.344 726.693, 1199.500 737.493 C 1196.750 738.738, 1192.250 740.769, 1189.500 742.005 C 1186.750 743.241, 1181.350 745.256, 1177.500 746.481 C 1168.481 749.353, 1168.486 749.503, 1178.405 774.242 C 1199.020 825.659, 1223.946 868.680, 1256.666 909.321 C 1285.841 945.557, 1327.193 984.146, 1366.812 1012.106 C 1391.313 1029.397, 1389.053 1028.932, 1403.635 1019.678 C 1456.125 986.367, 1508.220 935.469, 1550.180 876.500 C 1569.827 848.889, 1597.060 795.340, 1608.628 761.575 C 1612.686 749.728, 1612.594 749.562, 1599.448 744.932 C 1506.018 712.026, 1464.700 601.397, 1510.210 506 C 1527.402 469.963, 1564.584 437.444, 1601.883 425.823 C 1614.099 422.017, 1614.071 420.817, 1601.026 389.514 C 1561.598 294.894, 1496.862 215.953, 1409.971 156.535 C 1391.536 143.928, 1389.232 142.810, 1387.065 145.422 M 576.500 434.600 C 523.699 476.112, 444.374 516.465, 352 548.807 C 321.069 559.636, 272.978 573.395, 237.748 581.494 C 220.356 585.493, 220.477 585.877, 240.661 590.707 C 354.544 617.958, 456.962 659.192, 538.337 710.553 C 557.747 722.804, 561.728 725.505, 568.225 730.831 C 586.028 745.425, 586.887 745.542, 583.106 732.855 C 578.296 716.713, 573.795 697.363, 571.974 685 C 571.366 680.875, 569.995 671.650, 568.927 664.500 C 564.207 632.911, 562.098 591.380, 563.899 565.500 C 566.657 525.876, 568.155 509.952, 569.968 501 C 571.026 495.775, 573.068 484.123, 574.507 475.106 C 575.946 466.090, 578.698 452.447, 580.623 444.789 C 584.929 427.652, 585.028 427.896, 576.500 434.600 M 2197.759 430.575 C 2197.180 431.153, 2199.544 439.825, 2202.453 447.792 C 2203.314 450.153, 2204.473 455.328, 2205.028 459.292 C 2205.583 463.256, 2207.350 473.700, 2208.954 482.500 C 2223.885 564.428, 2220.112 670.515, 2200.090 731.695 C 2196.248 743.437, 2197.844 743.681, 2210.695 733.314 C 2220.418 725.471, 2251.918 704.865, 2269.500 694.845 C 2305.467 674.350, 2343.016 656.291, 2384.500 639.536 C 2426.456 622.591, 2467.588 609.390, 2520 596.049 C 2531.275 593.179, 2543.474 589.969, 2547.108 588.915 C 2550.742 587.862, 2554.455 587, 2555.358 587 C 2557.552 587, 2557.465 584.272, 2555.250 583.619 C 2554.287 583.336, 2550.575 582.597, 2547 581.977 C 2538.135 580.440, 2488.240 567.968, 2472.935 563.463 C 2394.248 540.303, 2311.374 503.621, 2246.500 463.237 C 2227.233 451.243, 2210.659 439.704, 2207.867 436.339 C 2206.672 434.899, 2199.577 430, 2198.687 430 C 2198.492 430, 2198.075 430.259, 2197.759 430.575 M 948.500 526.440 C 922.042 538.140, 866.035 557.558, 833.102 566.448 C 825.733 568.438, 819.376 570.267, 818.976 570.515 C 817.819 571.230, 782.561 579.930, 772.079 582.087 C 766.840 583.165, 762.197 584.403, 761.762 584.838 C 760.847 585.753, 775.041 590.242, 786 592.503 C 825.165 600.582, 920.085 631.617, 951.118 646.489 C 963.493 652.420, 964.504 651.708, 960.437 639.925 C 949.891 609.374, 950.157 560.802, 961.043 529.250 C 964.531 519.140, 964.849 519.211, 948.500 526.440 M 1820.497 528.395 C 1832.612 560.581, 1832.564 620.776, 1820.407 642.876 C 1815.607 651.601, 1816.173 651.667, 1834.160 644.471 C 1886.917 623.364, 1934.300 608.039, 1995 592.449 C 2021.212 585.717, 2019.865 586.155, 2017.972 584.972 C 2017.162 584.466, 2011.325 582.878, 2005 581.443 C 1942.615 567.285, 1884.750 548.846, 1828.146 525.087 C 1817.790 520.740, 1817.640 520.805, 1820.497 528.395 M 605.730 608.630 C 605.431 610.197, 605.598 617.333, 606.102 624.489 C 615.581 759.075, 680.331 887.762, 783.327 976.710 C 788.922 981.543, 793.725 985.722, 794 985.998 C 798.654 990.670, 821.553 1007.186, 841.500 1020.258 C 886.490 1049.742, 943.912 1075.210, 990 1086.123 C 996.875 1087.751, 1007 1090.184, 1012.500 1091.530 C 1081.652 1108.455, 1172.308 1106.712, 1251.418 1086.937 C 1275.400 1080.942, 1311.205 1068.010, 1343.250 1053.769 C 1349.469 1051.005, 1349.302 1050.394, 1340.745 1044.565 C 1278.343 1002.058, 1217.018 936.049, 1179.034 870.500 C 1160.829 839.083, 1155.629 831.939, 1136.742 812.389 C 1092.195 766.283, 1031.355 726.513, 952.500 691.954 C 847.735 646.040, 740.089 618.107, 631 608.527 C 621.375 607.682, 611.874 606.719, 609.887 606.387 C 606.523 605.824, 606.237 605.978, 605.730 608.630 M 2157 607.753 C 2141.338 608.397, 2093.598 614.431, 2071 618.623 C 2063.575 620.001, 2053.675 621.794, 2049 622.608 C 2033.907 625.237, 2025.902 627.003, 2004 632.533 C 1992.175 635.519, 1981.375 638.239, 1980 638.579 C 1958.677 643.842, 1898.152 663.292, 1878 671.358 C 1766.467 715.999, 1700.206 756.090, 1645.858 811.815 C 1627.857 830.272, 1622.566 837.311, 1607 863.507 C 1589.635 892.731, 1579.903 906.928, 1556.621 937 C 1529.419 972.135, 1481.046 1017.710, 1446.500 1040.751 C 1431.007 1051.084, 1431.015 1050.997, 1445.035 1057.068 C 1475.522 1070.272, 1484.409 1073.757, 1507 1081.371 C 1605.198 1114.465, 1730.156 1110.803, 1833 1071.816 C 1859.190 1061.887, 1865.605 1059.189, 1882.500 1050.998 C 1961.263 1012.810, 2035.623 951.370, 2079.771 888 C 2083.411 882.775, 2088.734 875.350, 2091.600 871.500 C 2127.248 823.608, 2161.916 735.843, 2171.393 669.500 C 2180.365 606.680, 2180.391 606.792, 2157 607.753" stroke="none" fill="#050505" fill-rule="evenodd"/></svg>